<svg width="12" height="12" viewBox="0 0 12 12" fill="none" xmlns="http://www.w3.org/2000/svg">
<path d="M6 4C4.916 4 4 4.916 4 6C4 7.084 4.916 8 6 8C7.084 8 8 7.084 8 6C8 4.916 7.084 4 6 4ZM6 7C5.4675 7 5 6.5325 5 6C5 5.4675 5.4675 5 6 5C6.5325 5 7 5.4675 7 6C7 6.5325 6.5325 7 6 7Z" fill="#FDFDFD"/>
<path d="M10 2.5H8.707L7.3535 1.1465C7.26 1.0525 7.133 1 7 1H5C4.867 1 4.74 1.0525 4.6465 1.1465L3.293 2.5H2C1.4485 2.5 1 2.9485 1 3.5V9C1 9.5515 1.4485 10 2 10H10C10.5515 10 11 9.5515 11 9V3.5C11 2.9485 10.5515 2.5 10 2.5ZM2 9V3.5H3.5C3.633 3.5 3.76 3.4475 3.8535 3.3535L5.207 2H6.793L8.1465 3.3535C8.24 3.4475 8.367 3.5 8.5 3.5H10L10.001 9H2Z" fill="#FDFDFD"/>
</svg>
