<svg width="16" height="16" viewBox="0 0 16 16" fill="none" xmlns="http://www.w3.org/2000/svg">
<path fill-rule="evenodd" clip-rule="evenodd" d="M1.6 3.1998V2.3998C1.6 1.5158 2.316 0.799805 3.2 0.799805H12.8C13.684 0.799805 14.4 1.5158 14.4 2.3998V3.1998C14.4 3.6414 14.0416 3.9998 13.6 3.9998C13.1584 3.9998 12.8 3.6414 12.8 3.1998C12.8 2.7582 12.4416 2.3998 12 2.3998H4C3.5584 2.3998 3.2 2.7582 3.2 3.1998C3.2 3.6414 2.8416 3.9998 2.4 3.9998C1.9584 3.9998 1.6 3.6414 1.6 3.1998ZM9.6 10.3998C9.6 11.2838 8.884 11.9998 8 11.9998C7.116 11.9998 6.4 11.2838 6.4 10.3998C6.4 9.5158 7.116 8.7998 8 8.7998C8.884 8.7998 9.6 9.5158 9.6 10.3998ZM14.4 8.5254L13.0744 7.1998C14.3776 7.1998 14.4 7.507 14.4 8.5254ZM13.0744 13.5998L14.4 12.2742C14.4 13.5758 14.096 13.5998 13.0744 13.5998ZM5.18799 13.5998L1.98799 10.3998L5.18799 7.1998H10.812L14.012 10.3998L10.812 13.5998H5.18799ZM1.6 12.2742L2.9256 13.5998C1.624 13.5998 1.6 13.2958 1.6 12.2742ZM2.9256 7.1998L1.6 8.5254C1.6 7.2222 1.9072 7.1998 2.9256 7.1998ZM14.4 5.5998H1.6C0.716 5.5998 0 6.3158 0 7.1998V13.5998C0 14.4838 0.716 15.1998 1.6 15.1998H14.4C15.284 15.1998 16 14.4838 16 13.5998V7.1998C16 6.3158 15.284 5.5998 14.4 5.5998Z" fill="white" fill-opacity="0.01"/>
<mask id="mask0_6_220" style="mask-type:alpha" maskUnits="userSpaceOnUse" x="0" y="0" width="16" height="16">
<path fill-rule="evenodd" clip-rule="evenodd" d="M1.6 3.1998V2.3998C1.6 1.5158 2.316 0.799805 3.2 0.799805H12.8C13.684 0.799805 14.4 1.5158 14.4 2.3998V3.1998C14.4 3.6414 14.0416 3.9998 13.6 3.9998C13.1584 3.9998 12.8 3.6414 12.8 3.1998C12.8 2.7582 12.4416 2.3998 12 2.3998H4C3.5584 2.3998 3.2 2.7582 3.2 3.1998C3.2 3.6414 2.8416 3.9998 2.4 3.9998C1.9584 3.9998 1.6 3.6414 1.6 3.1998ZM9.6 10.3998C9.6 11.2838 8.884 11.9998 8 11.9998C7.116 11.9998 6.4 11.2838 6.4 10.3998C6.4 9.5158 7.116 8.7998 8 8.7998C8.884 8.7998 9.6 9.5158 9.6 10.3998ZM14.4 8.5254L13.0744 7.1998C14.3776 7.1998 14.4 7.507 14.4 8.5254ZM13.0744 13.5998L14.4 12.2742C14.4 13.5758 14.096 13.5998 13.0744 13.5998ZM5.18799 13.5998L1.98799 10.3998L5.18799 7.1998H10.812L14.012 10.3998L10.812 13.5998H5.18799ZM1.6 12.2742L2.9256 13.5998C1.624 13.5998 1.6 13.2958 1.6 12.2742ZM2.9256 7.1998L1.6 8.5254C1.6 7.2222 1.9072 7.1998 2.9256 7.1998ZM14.4 5.5998H1.6C0.716 5.5998 0 6.3158 0 7.1998V13.5998C0 14.4838 0.716 15.1998 1.6 15.1998H14.4C15.284 15.1998 16 14.4838 16 13.5998V7.1998C16 6.3158 15.284 5.5998 14.4 5.5998Z" fill="white"/>
</mask>
<g mask="url(#mask0_6_220)">
<rect x="-0.800659" y="-0.800781" width="17.6" height="17.6" fill="white"/>
</g>
</svg>
