<svg width="24" height="24" viewBox="0 0 24 24" fill="none" xmlns="http://www.w3.org/2000/svg">
<path d="M7.28101 9.37613C7.40363 9.51152 7.55325 9.61973 7.72023 9.69379C7.88721 9.76784 8.06785 9.8061 8.25051 9.8061C8.43318 9.8061 8.61382 9.76784 8.7808 9.69379C8.94778 9.61973 9.0974 9.51152 9.22001 9.37613L9.84701 8.67613C10.0278 8.47622 10.266 8.33714 10.5289 8.27796C10.7919 8.21878 11.0667 8.24241 11.3157 8.3456C11.5647 8.44879 11.7756 8.62649 11.9197 8.85432C12.0637 9.08215 12.1336 9.34895 12.12 9.61813L12.073 10.5521C12.0627 10.7349 12.0911 10.9177 12.1564 11.0887C12.2217 11.2597 12.3223 11.415 12.4517 11.5444C12.5811 11.6738 12.7364 11.7745 12.9074 11.8397C13.0784 11.905 13.2613 11.9334 13.444 11.9231L14.378 11.8761C14.6474 11.8621 14.9144 11.9319 15.1425 12.0759C15.3705 12.2199 15.5483 12.431 15.6515 12.6802C15.7547 12.9294 15.7781 13.2044 15.7185 13.4675C15.659 13.7305 15.5194 13.9687 15.319 14.1491L14.625 14.7761C14.4893 14.8986 14.3809 15.0481 14.3067 15.2151C14.2324 15.3821 14.1941 15.5629 14.1941 15.7456C14.1941 15.9284 14.2324 16.1091 14.3067 16.2761C14.3809 16.4431 14.4893 16.5927 14.625 16.7151L15.319 17.3421C15.5194 17.5226 15.659 17.7607 15.7185 18.0238C15.7781 18.2868 15.7547 18.5619 15.6515 18.8111C15.5483 19.0603 15.3705 19.2714 15.1425 19.4153C14.9144 19.5593 14.6474 19.6291 14.378 19.6151L13.444 19.5681C13.2615 19.5586 13.079 19.5876 12.9083 19.6531C12.7377 19.7187 12.5827 19.8193 12.4535 19.9486C12.3242 20.0778 12.2236 20.2328 12.158 20.4034C12.0925 20.5741 12.0635 20.7566 12.073 20.9391L12.12 21.8731C12.1336 22.1423 12.0637 22.4091 11.9197 22.6369C11.7756 22.8648 11.5647 23.0425 11.3157 23.1457C11.0667 23.2488 10.7919 23.2725 10.5289 23.2133C10.266 23.1541 10.0278 23.015 9.84701 22.8151L9.22001 22.1151C9.0974 21.9797 8.94778 21.8715 8.7808 21.7975C8.61382 21.7234 8.43318 21.6852 8.25051 21.6852C8.06785 21.6852 7.88721 21.7234 7.72023 21.7975C7.55325 21.8715 7.40363 21.9797 7.28101 22.1151L6.65401 22.8151C6.47324 23.015 6.23504 23.1541 5.97209 23.2133C5.70914 23.2725 5.43432 23.2488 5.18533 23.1457C4.93635 23.0425 4.72538 22.8648 4.58138 22.6369C4.43737 22.4091 4.36738 22.1423 4.38101 21.8731L4.42801 20.9391C4.43719 20.7567 4.40801 20.5743 4.34236 20.4038C4.2767 20.2333 4.17604 20.0785 4.04685 19.9493C3.91766 19.8201 3.76283 19.7194 3.59234 19.6538C3.42184 19.5881 3.23948 19.559 3.05701 19.5681L2.12301 19.6151C1.85383 19.6288 1.58703 19.5588 1.3592 19.4148C1.13137 19.2708 0.953672 19.0598 0.850483 18.8108C0.747294 18.5618 0.723668 18.287 0.782845 18.0241C0.842022 17.7611 0.981104 17.5229 1.18101 17.3421L1.87601 16.7151C2.01141 16.5925 2.11961 16.4429 2.19367 16.2759C2.26772 16.1089 2.30598 15.9283 2.30598 15.7456C2.30598 15.563 2.26772 15.3823 2.19367 15.2153C2.11961 15.0484 2.01141 14.8987 1.87601 14.7761L1.18101 14.1491C0.981104 13.9684 0.842022 13.7302 0.782845 13.4672C0.723668 13.2043 0.747294 12.9294 0.850483 12.6805C0.953672 12.4315 1.13137 12.2205 1.3592 12.0765C1.58703 11.9325 1.85383 11.8625 2.12301 11.8761L3.05701 11.9231C3.23956 11.9326 3.42206 11.9037 3.59269 11.8381C3.76333 11.7726 3.9183 11.6719 4.04755 11.5427C4.1768 11.4134 4.27746 11.2584 4.343 11.0878C4.40854 10.9172 4.4375 10.7347 4.42801 10.5521L4.38101 9.61813C4.36738 9.34895 4.43737 9.08215 4.58138 8.85432C4.72538 8.62649 4.93635 8.44879 5.18533 8.3456C5.43432 8.24241 5.70914 8.21878 5.97209 8.27796C6.23504 8.33714 6.47324 8.47622 6.65401 8.67613L7.28101 9.37613Z" stroke="#A3A3A3" stroke-width="1.5" stroke-linecap="round" stroke-linejoin="round"/>
<path d="M8.25 17.625C9.28553 17.625 10.125 16.7855 10.125 15.75C10.125 14.7145 9.28553 13.875 8.25 13.875C7.21447 13.875 6.375 14.7145 6.375 15.75C6.375 16.7855 7.21447 17.625 8.25 17.625Z" stroke="#A3A3A3" stroke-width="1.5" stroke-linecap="round" stroke-linejoin="round"/>
<path d="M18.6379 5C18.5638 5 18.4913 5.02199 18.4296 5.0632C18.3679 5.1044 18.3199 5.16297 18.2915 5.23149C18.2631 5.30002 18.2557 5.37542 18.2701 5.44816C18.2846 5.5209 18.3203 5.58772 18.3728 5.64016C18.4252 5.69261 18.492 5.72833 18.5648 5.74279C18.6375 5.75726 18.7129 5.74984 18.7814 5.72145C18.85 5.69307 18.9085 5.64501 18.9497 5.58334C18.9909 5.52167 19.0129 5.44917 19.0129 5.375C19.0129 5.27554 18.9734 5.18016 18.9031 5.10984C18.8328 5.03951 18.7374 5 18.6379 5Z" stroke="#A3A3A3" stroke-width="1.5" stroke-linecap="round" stroke-linejoin="round"/>
<path d="M21.1941 1.8494C21.3298 1.79658 21.4779 1.78439 21.6204 1.81432C21.7629 1.84425 21.8936 1.91502 21.9965 2.01797C22.0995 2.12092 22.1702 2.25162 22.2002 2.39411C22.2301 2.5366 22.2179 2.68472 22.1651 2.8204L21.6651 4.1064C21.6072 4.25488 21.5982 4.41795 21.6394 4.5719C21.6806 4.72584 21.7698 4.86264 21.8941 4.9624L22.9691 5.8264C23.0825 5.91749 23.167 6.03962 23.2123 6.17789C23.2576 6.31617 23.2616 6.46462 23.224 6.60516C23.1864 6.74571 23.1087 6.87227 23.0004 6.96944C22.8921 7.0666 22.7579 7.13017 22.6141 7.1524L21.2511 7.3634C21.0936 7.38748 20.9479 7.46117 20.8351 7.57375C20.7223 7.68633 20.6484 7.83193 20.6241 7.9894L20.4131 9.3534C20.3909 9.49719 20.3273 9.6314 20.2301 9.73969C20.133 9.84799 20.0064 9.92568 19.8659 9.96331C19.7253 10.0009 19.5769 9.99687 19.4386 9.95161C19.3003 9.90635 19.1782 9.82185 19.0871 9.7084L18.2231 8.6334C18.1233 8.50921 17.9865 8.42 17.8326 8.37865C17.6788 8.3373 17.5157 8.34597 17.3671 8.4034L16.0811 8.9034C15.9454 8.95622 15.7973 8.96841 15.6548 8.93848C15.5123 8.90855 15.3816 8.83778 15.2787 8.73483C15.1757 8.63188 15.105 8.50118 15.075 8.35869C15.0451 8.2162 15.0573 8.06808 15.1101 7.9324L15.6101 6.6464C15.668 6.49791 15.6769 6.33485 15.6358 6.1809C15.5946 6.02696 15.5054 5.89016 15.3811 5.7904L14.3061 4.9254C14.1929 4.83438 14.1086 4.71239 14.0634 4.5743C14.0183 4.43621 14.0143 4.28798 14.0519 4.14766C14.0895 4.00733 14.1672 3.88098 14.2753 3.78399C14.3835 3.687 14.5175 3.62356 14.6611 3.6014L16.0241 3.3904C16.1816 3.36596 16.3273 3.29203 16.44 3.17931C16.5527 3.06659 16.6267 2.92093 16.6511 2.7634L16.8621 1.4014C16.8841 1.25759 16.9475 1.1233 17.0445 1.01492C17.1416 0.906553 17.2681 0.828792 17.4086 0.791142C17.5492 0.753492 17.6976 0.757581 17.8359 0.802911C17.9741 0.848241 18.0961 0.932848 18.1871 1.0464L19.0521 2.1214C19.152 2.24554 19.2888 2.33466 19.4427 2.37583C19.5966 2.417 19.7596 2.4081 19.9081 2.3504L21.1941 1.8494Z" stroke="#A3A3A3" stroke-width="1.5" stroke-linecap="round" stroke-linejoin="round"/>
</svg>
