<svg width="16" height="16" viewBox="0 0 16 16" fill="none" xmlns="http://www.w3.org/2000/svg">
<path fill-rule="evenodd" clip-rule="evenodd" d="M13.2499 14.4H2.75045C2.18533 14.4 1.76803 13.8424 1.98118 13.3296C2.97012 10.9584 5.29346 9.60003 7.99979 9.60003C10.7069 9.60003 13.0303 10.9584 14.0192 13.3296C14.2324 13.8424 13.8151 14.4 13.2499 14.4ZM4.73333 4.80014C4.73333 3.03534 6.19919 1.60014 7.99987 1.60014C9.80137 1.60014 11.2664 3.03534 11.2664 4.80014C11.2664 6.56494 9.80137 8.00014 7.99987 8.00014C6.19919 8.00014 4.73333 6.56494 4.73333 4.80014ZM15.9645 14.1088C15.3708 11.4216 13.5138 9.43838 11.0696 8.53838C12.3648 7.51678 13.1202 5.86478 12.8425 4.05598C12.5208 1.95758 10.7389 0.278382 8.58786 0.0335816C5.61857 -0.304818 3.10006 1.95918 3.10006 4.79998C3.10006 6.31198 3.81543 7.65918 4.93096 8.53838C2.48595 9.43838 0.629731 11.4216 0.0352192 14.1088C-0.180373 15.0856 0.623198 16 1.64318 16H14.3566C15.3774 16 16.181 15.0856 15.9645 14.1088Z" fill="white" fill-opacity="0.01"/>
<mask id="mask0_6_376" style="mask-type:alpha" maskUnits="userSpaceOnUse" x="0" y="0" width="16" height="16">
<path fill-rule="evenodd" clip-rule="evenodd" d="M13.2499 14.4H2.75045C2.18533 14.4 1.76803 13.8424 1.98118 13.3296C2.97012 10.9584 5.29346 9.60003 7.99979 9.60003C10.7069 9.60003 13.0303 10.9584 14.0192 13.3296C14.2324 13.8424 13.8151 14.4 13.2499 14.4ZM4.73333 4.80014C4.73333 3.03534 6.19919 1.60014 7.99987 1.60014C9.80137 1.60014 11.2664 3.03534 11.2664 4.80014C11.2664 6.56494 9.80137 8.00014 7.99987 8.00014C6.19919 8.00014 4.73333 6.56494 4.73333 4.80014ZM15.9645 14.1088C15.3708 11.4216 13.5138 9.43838 11.0696 8.53838C12.3648 7.51678 13.1202 5.86478 12.8425 4.05598C12.5208 1.95758 10.7389 0.278382 8.58786 0.0335816C5.61857 -0.304818 3.10006 1.95918 3.10006 4.79998C3.10006 6.31198 3.81543 7.65918 4.93096 8.53838C2.48595 9.43838 0.629731 11.4216 0.0352192 14.1088C-0.180373 15.0856 0.623198 16 1.64318 16H14.3566C15.3774 16 16.181 15.0856 15.9645 14.1088Z" fill="white"/>
</mask>
<g mask="url(#mask0_6_376)">
<rect x="-0.800049" y="-0.799805" width="17.6" height="17.6" fill="white"/>
</g>
</svg>
