<svg width="24" height="24" viewBox="0 0 24 24" fill="none" xmlns="http://www.w3.org/2000/svg">
<path d="M3.75 23L1.736 20.483C1.09752 19.6848 0.749776 18.6931 0.75 17.671V12.5C0.75 12.1022 0.908035 11.7206 1.18934 11.4393C1.47064 11.158 1.85218 11 2.25 11V11C2.64782 11 3.02936 11.158 3.31066 11.4393C3.59196 11.7206 3.75 12.1022 3.75 12.5V16.25" stroke="#A3A3A3" stroke-width="1.5" stroke-linecap="round" stroke-linejoin="round"/>
<path d="M8.24993 22.8626V19.8626C8.25075 18.9727 7.98728 18.1026 7.49293 17.3626L6.35093 15.6526C6.25349 15.4901 6.12408 15.3491 5.97055 15.2381C5.81701 15.1271 5.64255 15.0484 5.45771 15.0068C5.27287 14.9652 5.08152 14.9616 4.89523 14.9961C4.70894 15.0306 4.53159 15.1026 4.37393 15.2076V15.2076C4.09028 15.3972 3.88559 15.6837 3.79831 16.0135C3.71103 16.3433 3.74716 16.6936 3.89993 16.9986L5.24993 19.2486" stroke="#A3A3A3" stroke-width="1.5" stroke-linecap="round" stroke-linejoin="round"/>
<path d="M20.25 23L22.264 20.483C22.9025 19.6848 23.2502 18.6931 23.25 17.671V12.5C23.25 12.1022 23.092 11.7206 22.8107 11.4393C22.5294 11.158 22.1478 11 21.75 11C21.3522 11 20.9706 11.158 20.6893 11.4393C20.408 11.7206 20.25 12.1022 20.25 12.5V16.25" stroke="#A3A3A3" stroke-width="1.5" stroke-linecap="round" stroke-linejoin="round"/>
<path d="M15.75 22.8641V19.8641C15.7492 18.9742 16.0127 18.1041 16.507 17.3641L17.649 15.6521C17.7464 15.4897 17.8758 15.3486 18.0294 15.2376C18.1829 15.1266 18.3574 15.0479 18.5422 15.0063C18.7271 14.9647 18.9184 14.9611 19.1047 14.9956C19.291 15.0301 19.4683 15.1021 19.626 15.2071V15.2071C19.9101 15.3967 20.1152 15.6837 20.2025 16.0139C20.2898 16.3441 20.2533 16.6949 20.1 17.0001L18.75 19.2501" stroke="#A3A3A3" stroke-width="1.5" stroke-linecap="round" stroke-linejoin="round"/>
<path d="M4.02295 7.24984L11.0309 1.31984C11.3018 1.09062 11.6451 0.964844 11.9999 0.964844C12.3548 0.964844 12.6981 1.09062 12.9689 1.31984L19.9799 7.25184" stroke="#A3A3A3" stroke-width="1.5" stroke-linecap="round" stroke-linejoin="round"/>
<path d="M15.93 8.58879C15.7526 8.40257 15.5391 8.25433 15.3027 8.15303C15.0663 8.05174 14.8117 7.99951 14.5545 7.99951C14.2973 7.99951 14.0427 8.05174 13.8063 8.15303C13.5699 8.25433 13.3564 8.40257 13.179 8.58879L12 9.80779L10.821 8.58879C10.6436 8.40257 10.4301 8.25433 10.1937 8.15303C9.95727 8.05174 9.70272 7.99951 9.4455 7.99951C9.18828 7.99951 8.93373 8.05174 8.6973 8.15303C8.46086 8.25433 8.24745 8.40257 8.07 8.58879C7.70414 8.97201 7.5 9.48146 7.5 10.0113C7.5 10.5411 7.70414 11.0506 8.07 11.4338L11.581 15.0648C11.6351 15.1215 11.7001 15.1666 11.7721 15.1975C11.8441 15.2283 11.9217 15.2442 12 15.2442C12.0783 15.2442 12.1559 15.2283 12.2279 15.1975C12.2999 15.1666 12.3649 15.1215 12.419 15.0648L15.93 11.4338C16.2959 11.0506 16.5 10.5411 16.5 10.0113C16.5 9.48146 16.2959 8.97201 15.93 8.58879V8.58879Z" stroke="#A3A3A3" stroke-width="1.5" stroke-linecap="round" stroke-linejoin="round"/>
</svg>
